<?xml version="1.0" encoding="utf-8" ?>
<svg baseProfile="tiny" height="100%" version="1.2" width="100%" xmlns="http://www.w3.org/2000/svg" xmlns:ev="http://www.w3.org/2001/xml-events" xmlns:xlink="http://www.w3.org/1999/xlink"><defs /><path d="M 590 594 Q 572 602 564.0 610.5 Q 556 619 552.0 631.5 Q 548 644 549.0 655.5 Q 550 667 555.0 677.0 Q 560 687 567.5 693.5 Q 575 700 584.5 703.5 Q 594 707 608.5 706.0 Q 623 705 634.0 698.0 Q 645 691 649.5 682.0 Q 654 673 641.0 673.0 Q 628 673 622.0 678.0 Q 616 683 607.5 684.0 Q 599 685 592.5 682.0 Q 586 679 580.5 670.0 Q 575 661 615.5 660.0 Q 656 659 656.5 646.0 Q 657 633 652.5 623.5 Q 648 614 639.5 606.5 Q 631 599 621.5 596.0 Q 612 593 601.0 593.5 Z" fill="black" fill-rule="evenodd" stroke="black" stroke-width="1" /><path d="M 575 638 Q 580 627 583.5 623.5 Q 587 620 592.5 617.5 Q 598 615 604.0 615.0 Q 610 615 613.0 616.0 Q 616 617 620.0 620.0 Q 624 623 626.5 626.5 Q 629 630 630.0 632.5 Q 631 635 631.0 637.0 Q 631 639 630.0 640.0 Q 629 641 603.0 641.0 Q 577 641 576.0 639.5 Z" fill="black" fill-rule="evenodd" stroke="black" stroke-width="1" /><path d="M 525 595 Q 504 595 501.5 600.5 Q 499 606 489.5 600.0 Q 480 594 467.5 594.0 Q 455 594 447.0 597.5 Q 439 601 432.0 608.5 Q 425 616 421.5 626.0 Q 418 636 418.0 646.0 Q 418 656 422.0 666.5 Q 426 677 431.5 683.0 Q 437 689 449.5 694.0 Q 462 699 470.5 698.5 Q 479 698 489.0 693.5 Q 499 689 498.5 700.5 Q 498 712 489.5 719.5 Q 481 727 470.0 726.0 Q 459 725 453.0 718.0 Q 447 711 434.0 711.5 Q 421 712 424.0 721.0 Q 427 730 435.5 737.5 Q 444 745 454.5 748.0 Q 465 751 476.0 750.5 Q 487 750 496.5 746.5 Q 506 743 512.5 736.5 Q 519 730 522.5 720.5 Q 526 711 525.5 653.0 Z" fill="black" fill-rule="evenodd" stroke="black" stroke-width="1" /><path d="M 471 616 Q 482 618 484.5 619.5 Q 487 621 491.0 625.0 Q 495 629 497.0 633.5 Q 499 638 499.0 645.5 Q 499 653 497.5 657.0 Q 496 661 492.0 665.5 Q 488 670 482.5 672.5 Q 477 675 472.0 675.0 Q 467 675 462.0 673.0 Q 457 671 453.0 667.0 Q 449 663 447.0 658.0 Q 445 653 445.0 645.5 Q 445 638 447.0 633.5 Q 449 629 453.5 624.5 Q 458 620 464.5 618.0 Z" fill="black" fill-rule="evenodd" stroke="black" stroke-width="1" /><path d="M 320 600 Q 306 615 305.0 621.5 Q 304 628 316.0 628.0 Q 328 628 332.0 623.0 Q 336 618 345.0 616.5 Q 354 615 360.5 619.5 Q 367 624 368.5 630.0 Q 370 636 350.5 637.0 Q 331 638 321.5 641.5 Q 312 645 307.0 650.5 Q 302 656 300.0 662.5 Q 298 669 301.5 681.5 Q 305 694 317.0 700.5 Q 329 707 340.0 706.5 Q 351 706 360.5 700.5 Q 370 695 372.0 700.0 Q 374 705 384.5 705.0 Q 395 705 395.5 666.5 Q 396 628 392.5 619.0 Q 389 610 383.5 605.0 Q 378 600 367.5 596.5 Q 357 593 346.0 593.5 Q 335 594 327.5 597.0 Z" fill="black" fill-rule="evenodd" stroke="black" stroke-width="1" /><path d="M 370 659 Q 369 667 367.0 671.5 Q 365 676 363.0 678.0 Q 361 680 356.5 682.5 Q 352 685 350.0 685.0 Q 348 685 347.5 685.5 Q 347 686 343.0 686.0 Q 339 686 338.5 685.5 Q 338 685 336.5 685.0 Q 335 685 333.0 684.0 Q 331 683 328.5 680.0 Q 326 677 325.5 675.5 Q 325 674 325.5 670.0 Q 326 666 328.5 663.0 Q 331 660 334.5 658.5 Q 338 657 341.5 657.0 Q 345 657 345.5 656.5 Q 346 656 356.5 656.0 Q 367 656 368.5 657.5 Z" fill="black" fill-rule="evenodd" stroke="black" stroke-width="1" /><path d="M 116 596 Q 117 705 130.0 704.0 Q 143 703 143.0 668.5 Q 143 634 151.5 626.0 Q 160 618 167.0 619.5 Q 174 621 178.0 626.5 Q 182 632 182.5 668.5 Q 183 705 196.5 704.5 Q 210 704 210.0 669.0 Q 210 634 218.5 626.0 Q 227 618 234.0 619.5 Q 241 621 245.0 627.0 Q 249 633 249.5 669.0 Q 250 705 263.0 704.5 Q 276 704 276.0 666.5 Q 276 629 267.0 614.0 Q 258 599 243.5 596.0 Q 229 593 214.5 600.5 Q 200 608 188.0 600.5 Q 176 593 167.5 593.5 Q 159 594 151.0 599.0 Q 143 604 140.5 599.5 Q 138 595 127.0 595.5 Z" fill="black" fill-rule="evenodd" stroke="black" stroke-width="1" /><path d="M 58 553 Q 58 705 71.5 705.0 Q 85 705 85.5 629.5 Q 86 554 72.0 553.5 Z" fill="black" fill-rule="evenodd" stroke="black" stroke-width="1" /><path d="M 431 356 Q 403 357 390.0 394.5 Q 377 432 374.5 430.5 Q 372 429 359.0 393.0 Q 346 357 331.5 357.0 Q 317 357 339.0 413.5 Q 361 470 358.5 477.0 Q 356 484 343.0 485.0 Q 330 486 330.5 498.0 Q 331 510 348.5 509.5 Q 366 509 373.5 503.5 Q 381 498 406.0 427.0 Z" fill="black" fill-rule="evenodd" stroke="black" stroke-width="1" /><path d="M 290 363 Q 269 354 259.0 354.5 Q 249 355 240.0 360.0 Q 231 365 228.5 360.5 Q 226 356 215.0 356.5 Q 204 357 204.5 411.5 Q 205 466 217.5 466.0 Q 230 466 230.5 431.5 Q 231 397 236.0 390.0 Q 241 383 246.0 381.0 Q 251 379 259.0 380.5 Q 267 382 272.5 389.0 Q 278 396 278.5 430.5 Q 279 465 292.0 465.5 Q 305 466 305.0 428.0 Q 305 390 297.5 376.5 Z" fill="black" fill-rule="evenodd" stroke="black" stroke-width="1" /><path d="M 95 314 Q 41 465 56.0 465.5 Q 71 466 78.0 449.0 Q 85 432 115.5 432.0 Q 146 432 153.0 449.0 Q 160 466 175.0 466.0 Q 190 466 163.5 390.5 Q 137 315 116.0 314.5 Z" fill="black" fill-rule="evenodd" stroke="black" stroke-width="1" /><path d="M 114 344 Q 117 344 118.0 345.0 Q 119 346 129.0 375.5 Q 139 405 138.5 406.0 Q 138 407 116.0 407.0 Q 94 407 93.5 406.5 Q 93 406 95.5 397.0 Q 98 388 106.0 366.0 Z" fill="black" fill-rule="evenodd" stroke="black" stroke-width="1" /><path d="M 525 115 Q 507 123 499.0 131.5 Q 491 140 487.0 152.5 Q 483 165 484.0 176.5 Q 485 188 490.0 198.0 Q 495 208 502.5 214.5 Q 510 221 519.5 224.5 Q 529 228 543.5 227.0 Q 558 226 569.5 218.5 Q 581 211 585.0 202.5 Q 589 194 576.0 194.0 Q 563 194 557.0 199.0 Q 551 204 542.5 205.0 Q 534 206 527.5 203.0 Q 521 200 515.5 191.0 Q 510 182 550.5 181.0 Q 591 180 591.5 167.0 Q 592 154 587.5 144.5 Q 583 135 574.5 127.5 Q 566 120 556.5 117.0 Q 547 114 536.0 114.5 Z" fill="black" fill-rule="evenodd" stroke="black" stroke-width="1" /><path d="M 510 159 Q 515 148 518.5 144.5 Q 522 141 527.5 138.5 Q 533 136 539.0 136.0 Q 545 136 548.0 137.0 Q 551 138 555.0 141.0 Q 559 144 561.5 147.5 Q 564 151 565.0 153.5 Q 566 156 566.0 158.0 Q 566 160 565.0 161.0 Q 564 162 538.0 162.0 Q 512 162 511.0 160.5 Z" fill="black" fill-rule="evenodd" stroke="black" stroke-width="1" /><path d="M 271 122 Q 259 135 257.5 142.0 Q 256 149 268.0 149.0 Q 280 149 285.0 143.5 Q 290 138 298.5 137.0 Q 307 136 312.5 139.5 Q 318 143 320.0 150.0 Q 322 157 303.0 158.0 Q 284 159 273.5 163.0 Q 263 167 257.0 177.5 Q 251 188 253.5 200.5 Q 256 213 261.5 218.0 Q 267 223 274.0 225.5 Q 281 228 292.5 227.5 Q 304 227 313.0 221.5 Q 322 216 324.0 221.0 Q 326 226 337.0 226.0 Q 348 226 348.5 189.0 Q 349 152 345.5 142.0 Q 342 132 335.5 126.0 Q 329 120 319.5 117.0 Q 310 114 298.5 114.5 Q 287 115 279.0 118.5 Z" fill="black" fill-rule="evenodd" stroke="black" stroke-width="1" /><path d="M 322 179 Q 322 186 320.0 191.0 Q 318 196 314.5 199.5 Q 311 203 309.0 204.0 Q 307 205 304.0 205.5 Q 301 206 300.5 206.5 Q 300 207 295.5 207.0 Q 291 207 290.5 206.5 Q 290 206 288.5 206.0 Q 287 206 286.0 205.5 Q 285 205 281.5 201.0 Q 278 197 278.0 192.5 Q 278 188 278.5 187.0 Q 279 186 283.0 182.5 Q 287 179 288.5 178.5 Q 290 178 294.0 178.0 Q 298 178 298.5 177.5 Q 299 177 309.0 177.0 Q 319 177 320.5 178.0 Z" fill="black" fill-rule="evenodd" stroke="black" stroke-width="1" /><path d="M 378 74 Q 377 225 390.0 225.5 Q 403 226 404.5 201.5 Q 406 177 426.5 201.5 Q 447 226 462.0 226.0 Q 477 226 454.0 198.0 Q 431 170 453.0 143.0 Q 475 116 460.0 116.0 Q 445 116 425.0 139.5 Q 405 163 404.0 118.5 Q 403 74 390.5 74.0 Z" fill="black" fill-rule="evenodd" stroke="black" stroke-width="1" /><path d="M 58 74 Q 58 226 72.0 225.5 Q 86 225 87.0 172.0 Q 88 119 107.5 172.5 Q 127 226 142.5 225.0 Q 158 224 177.0 171.5 Q 196 119 196.5 172.0 Q 197 225 211.5 225.0 Q 226 225 225.5 149.5 Q 225 74 202.5 74.5 Q 180 75 161.0 129.0 Q 142 183 122.5 128.5 Q 103 74 80.5 74.0 Z" fill="black" fill-rule="evenodd" stroke="black" stroke-width="1" /></svg>